<svg width="31" height="31" viewBox="0 0 31 31" fill="none" xmlns="http://www.w3.org/2000/svg">
<path d="M15.4999 6.88543e-09C11.3891 6.88544e-09 7.44663 1.63302 4.53983 4.53983C1.63302 7.44663 0 11.3891 0 15.4999C0 19.6108 1.63302 23.5533 4.53983 26.4601C7.44663 29.3669 11.3891 30.9999 15.4999 30.9999C19.0371 31.0138 22.4702 29.8038 25.217 27.5751C27.7164 25.564 29.5302 22.8269 30.4081 19.7414C31.2861 16.6558 31.185 13.3738 30.1188 10.3482C29.0526 7.3225 27.0738 4.7022 24.4554 2.84872C21.837 0.995243 18.708 -9.55894e-05 15.4999 6.88543e-09ZM26.6389 23.0072C25.8997 20.7083 23.6183 18.7933 20.5571 17.7738C19.9134 18.4735 19.1316 19.032 18.261 19.414C17.3905 19.796 16.4501 19.9932 15.4994 19.9932C14.5487 19.9932 13.6084 19.7959 12.7378 19.4139C11.8673 19.0318 11.0855 18.4733 10.4418 17.7737C7.37977 18.7933 5.09921 20.7087 4.36071 23.0082C2.99821 20.9873 2.21122 18.6337 2.08405 16.1996C1.95688 13.7656 2.49431 11.3428 3.63878 9.19087C4.78325 7.03891 6.49162 5.23887 8.58088 3.98359C10.6701 2.7283 13.0615 2.06508 15.4989 2.06497C17.9363 2.06486 20.3277 2.72787 22.4171 3.98297C24.5065 5.23807 26.215 7.03796 27.3596 9.18981C28.5043 11.3417 29.042 13.7644 28.915 16.1984C28.788 18.6325 28.0012 20.9861 26.6389 23.0072Z" fill="white"/>
<path d="M15.4996 18.271C18.5801 18.271 21.0773 15.4924 21.0773 12.0648C21.0773 8.63715 18.5801 5.85852 15.4996 5.85852C12.4191 5.85852 9.92188 8.63715 9.92188 12.0648C9.92188 15.4924 12.4191 18.271 15.4996 18.271Z" fill="white"/>
</svg>