<svg width="36" height="31" viewBox="0 0 36 31" fill="none" xmlns="http://www.w3.org/2000/svg">
<path d="M26.8148 3.31125C26.6564 3.21872 26.4651 3.20303 26.2925 3.26577L23.0773 4.44051C22.7605 4.56441 22.599 4.9173 22.7166 5.23727C22.8326 5.55565 23.184 5.72346 23.5055 5.61369L26.0274 4.69302L26.5293 7.41261L26.5278 7.41105C26.5968 7.74355 26.9183 7.96156 27.2524 7.8988C27.5864 7.83764 27.8107 7.52081 27.7543 7.1852L27.1191 3.73943C27.0861 3.55906 26.9748 3.40222 26.8148 3.31125Z" fill="#00BE4C"/>
<path d="M35.0237 20.4786L29.9249 13.035C29.4638 12.4218 28.8819 13.0037 28.4396 13.297L27.7997 12.3653C33.5148 8.94623 31.1451 0.0393481 24.3853 0C17.2741 0.0674418 15.177 9.70532 21.6076 12.7042L18.681 19.3167L13.9476 14.5833C13.8095 14.4484 13.6166 14.3841 13.4253 14.4076C13.2339 14.4327 13.0645 14.5441 12.9673 14.7103L7.32127 24.406H5.97087C5.80462 24.406 5.64621 24.4719 5.52856 24.5895L1.24846 28.8712V2.14264C1.24689 1.79916 0.967714 1.51998 0.624229 1.51998C0.280748 1.51998 0.00156589 1.79915 0 2.14264V30.3769C0.0031366 30.7188 0.280744 30.9964 0.624229 30.9995C9.39644 31.0011 20.063 30.998 28.8585 30.9995C29.1973 30.9933 29.4701 30.7157 29.4701 30.3769C29.4701 30.0365 29.1972 29.7589 28.8585 29.7527H25.3092V16.2599C25.3014 15.9195 25.0238 15.6482 24.685 15.6482C24.3446 15.6482 24.067 15.9196 24.0607 16.2599V29.7527H20.0707V21.8838C20.0645 21.5451 19.7868 21.2722 19.4465 21.2722C19.1077 21.2722 18.8301 21.5451 18.8238 21.8838V29.7527H14.1298V19.6852C14.1251 19.3433 13.8475 19.0704 13.5055 19.0704C13.1652 19.0704 12.8876 19.3433 12.8813 19.6852V29.7527H8.3061V27.0597C8.29982 26.7194 8.02222 26.4465 7.68187 26.4465C7.33996 26.4465 7.06234 26.7194 7.05764 27.0597V29.7527H2.1299L6.22812 25.6544H7.6789C7.90161 25.6544 8.10707 25.5368 8.21845 25.3439L13.6372 16.0369L18.4413 20.8426C18.5887 20.9868 18.7958 21.0496 18.9965 21.0119C19.1989 20.9743 19.3682 20.841 19.4529 20.6543L22.7905 13.1168V13.1152C24.0719 13.4367 25.4191 13.3646 26.6582 12.9082L27.4094 14.0014C26.9719 14.3104 26.219 14.646 26.6252 15.2938L31.724 22.7374L31.7256 22.7389C31.9216 23.0213 32.3075 23.0934 32.5929 22.9005L34.8624 21.3462C35.1447 21.1501 35.2166 20.7641 35.0237 20.4786ZM24.3599 12.069C24.0039 12.0674 23.6495 12.0298 23.3013 11.9592L25.254 7.54741H25.2555C25.3857 7.23373 25.243 6.87299 24.9324 6.73656C24.6203 6.59854 24.258 6.73499 24.1137 7.0424L22.1155 11.5562C19.8116 10.4928 18.5584 7.96768 19.1042 5.48975C19.65 3.0101 21.8473 1.24578 24.3849 1.249C31.5587 1.53601 31.5588 11.7976 24.3599 12.069ZM32.401 21.5186L28.0081 15.1036C28.3186 14.8919 28.9366 14.4669 29.2471 14.2551L33.6416 20.67L32.401 21.5186Z" fill="#00BE4C"/>
</svg>
