<svg width="35" height="31" viewBox="0 0 35 31" fill="none" xmlns="http://www.w3.org/2000/svg">
<path d="M12.4194 24.0344H2.74579C2.24108 24.0344 1.83106 23.6244 1.83106 23.1197V10.1442C1.81398 8.9484 0.0202575 8.93595 6.10352e-05 10.1442V23.1197C6.10352e-05 24.6338 1.23161 25.8653 2.74575 25.8653H12.4194C13.6183 25.8436 13.6261 24.0561 12.4194 24.0344Z" fill="#00BE4C"/>
<path d="M33.8726 9.22803C33.3679 9.22803 32.9579 9.638 32.9579 10.1428V23.1182C32.9579 23.6229 32.5479 24.0329 32.0432 24.0329H28.021C26.8205 24.05 26.8158 25.8437 28.021 25.8639H32.0432C33.5573 25.8639 34.7888 24.6324 34.7888 23.1182V10.1428C34.7888 9.63808 34.3789 9.22807 33.8741 9.22807L33.8726 9.22803Z" fill="#00BE4C"/>
<path d="M34.7874 2.74724C34.7874 1.23306 33.5559 0.001553 32.0417 0.001553L2.74569 0C1.23151 0 0 1.23155 0 2.74569V6.48065C0 6.98691 0.411563 7.39848 0.917827 7.39848H33.8727C34.379 7.39848 34.789 6.98691 34.7874 6.48065V2.74569V2.74724ZM2.74577 1.83097H32.0402C32.5449 1.83097 32.955 2.24094 32.955 2.74569V5.56752L1.83128 5.56907V2.74724C1.83128 2.24253 2.24125 1.83252 2.74601 1.83252L2.74577 1.83097Z" fill="#00BE4C"/>
<path d="M5.59875 4.61543C6.8023 4.59524 6.8023 2.80462 5.59875 2.78442C4.39519 2.80461 4.39519 4.59523 5.59875 4.61543Z" fill="#00BE4C"/>
<path d="M9.6599 4.61543C10.8635 4.59524 10.8635 2.80462 9.6599 2.78442C8.45634 2.80461 8.45634 4.59523 9.6599 4.61543Z" fill="#00BE4C"/>
<path d="M13.7195 4.61543C14.923 4.59524 14.923 2.80462 13.7195 2.78442C12.5159 2.80461 12.5159 4.59523 13.7195 4.61543Z" fill="#00BE4C"/>
<path d="M21.8772 4.61543H30.1065C31.3069 4.59524 31.3116 2.80462 30.1065 2.78442H21.8772C20.6767 2.80461 20.6721 4.59523 21.8772 4.61543Z" fill="#00BE4C"/>
<path d="M23.1307 24.5747L25.1822 23.8385C26.3082 23.413 26.2864 21.6752 25.145 21.2823C25.1061 21.2667 25.0673 21.2543 25.0269 21.245L16.0041 19.1143C14.9838 18.7493 13.906 19.824 14.2725 20.8474L16.4032 29.8703C16.7185 31.1142 18.5588 31.2183 19.0138 29.9821L19.7313 27.974L22.3544 30.5971C22.8917 31.1344 23.7645 31.1344 24.3034 30.5971L25.7554 29.145C26.2928 28.6077 26.2928 27.7333 25.7554 27.196L23.1339 24.5745L23.1307 24.5747ZM23.3264 28.9821L20.5186 26.1743C19.8368 25.4754 18.6146 25.7239 18.2558 26.6604L17.8148 27.8919L16.1965 21.0418L23.0482 22.6601L21.7717 23.1182C20.8849 23.4598 20.6395 24.7115 21.3291 25.3622L24.1369 28.1701L23.3262 28.9808L23.3264 28.9821Z" fill="#00BE4C"/>
<path d="M12.0966 15.6479C11.2316 14.8124 9.96586 16.0766 10.8014 16.9431L12.5143 18.6561C13.3794 19.4916 14.6451 18.2275 13.8095 17.3609L12.0966 15.6479Z" fill="#00BE4C"/>
<path d="M11.9722 21.7841C13.1742 21.7639 13.1757 19.9733 11.9722 19.9531H9.54946C8.34745 19.9733 8.3459 21.7639 9.54946 21.7841H11.9722Z" fill="#00BE4C"/>
<path d="M16.9374 16.8171V14.396C16.9172 13.194 15.1266 13.1924 15.1064 14.396V16.8171C15.1266 18.0191 16.9172 18.0207 16.9374 16.8171Z" fill="#00BE4C"/>
</svg>
