<svg width="25" height="25" viewBox="0 0 25 25" fill="none" xmlns="http://www.w3.org/2000/svg">
<path d="M24.6545 22.8288L20.0279 18.2072C23.5677 13.8027 23.2261 7.28908 19.1895 3.28784C17.078 1.17866 14.2524 0 11.2404 0C8.2285 0 5.43392 1.17866 3.2914 3.28784C1.17994 5.39702 0 8.2196 0 11.2283C0 14.237 1.17994 17.0285 3.2914 19.1687C5.40287 21.2779 8.2285 22.4566 11.2404 22.4566C13.7866 22.4566 16.2707 21.5881 18.258 20.0062L22.8846 24.6278C23.133 24.8759 23.4435 25 23.754 25C24.0955 25 24.4061 24.8759 24.6234 24.6278C25.1202 24.1005 25.1202 23.3251 24.6545 22.8288ZM19.9968 11.1973C19.9968 13.5236 19.0963 15.7258 17.4506 17.3697C15.8049 19.0136 13.6003 19.9132 11.2715 19.9132C8.94268 19.9132 6.73806 19.0136 5.09236 17.3697C3.44666 15.7258 2.54618 13.5236 2.54618 11.1973C2.54618 8.87097 3.44666 6.66873 5.09236 5.02481C6.73806 3.38089 8.94268 2.48139 11.2715 2.48139C13.6003 2.48139 15.8049 3.38089 17.4506 5.02481C19.0963 6.66873 19.9968 8.87097 19.9968 11.1973Z" fill="white"/>
</svg>
