<svg width="31" height="31" viewBox="0 0 31 31" fill="none" xmlns="http://www.w3.org/2000/svg">
<path d="M5.74471 15.8157V0.726602C5.74471 0.325008 6.06969 0 6.47131 0H30.2734C30.675 0 31 0.324976 31 0.726602V24.5287C31 24.9303 30.675 25.2553 30.2734 25.2553H15.1843V30.2734C15.1843 30.675 14.8593 31 14.4577 31H0.726602C0.325008 31 0 30.675 0 30.2734V16.5423C0 16.1407 0.324976 15.8157 0.726602 15.8157H5.74471ZM25.931 6.09553L17.5344 14.4922C17.2502 14.7764 16.7917 14.7764 16.5063 14.4922C16.2221 14.2079 16.2221 13.7495 16.5063 13.4653L24.9029 5.06866H21.8359C21.4343 5.06866 21.1093 4.74368 21.1093 4.34206C21.1093 3.94046 21.4343 3.61545 21.8359 3.61545H26.6563C27.0579 3.61545 27.3829 3.94043 27.3829 4.34206V9.16245C27.3829 9.56405 27.0579 9.88905 26.6563 9.88905C26.2547 9.88905 25.9297 9.56408 25.9297 9.16245V6.09544L25.931 6.09553ZM15.184 23.8021H29.5465V1.45197H7.1964V15.8145H14.4561C14.8577 15.8145 15.1827 16.1394 15.1827 16.5411V23.8008L15.184 23.8021ZM13.7308 17.269H1.45393V29.5468H13.7317V17.2699L13.7308 17.269Z" fill="#00BE4C"/>
</svg>
