<svg width="40" height="31" viewBox="0 0 40 31" fill="none" xmlns="http://www.w3.org/2000/svg">
<path d="M13.5511 0C13.1042 0.0421186 12.7253 0.46022 12.7273 0.909091V8.18182H0.909098C0.88071 8.18048 0.852259 8.18048 0.823871 8.18182C0.376977 8.22394 -0.00192812 8.64204 7.38256e-06 9.09091V24.5455C5.49735e-05 25.0214 0.433112 25.4545 0.909098 25.4545H26.3636C26.8396 25.4545 27.2727 25.0214 27.2727 24.5455V22.7273H33.608C34.0882 22.7341 34.53 22.2985 34.53 21.8182C34.53 21.3378 34.0882 20.9023 33.608 20.9091H27.2727V17.2727H39.0909C39.5669 17.2727 40 16.8396 40 16.3636V0.909091C40 0.433105 39.5669 4.77273e-05 39.0909 0C30.5795 0 22.0565 0 13.5511 0ZM14.5455 1.81818H38.1818V15.4545H27.2727V9.09091C27.2727 8.61492 26.8396 8.18186 26.3636 8.18182H14.5455V1.81818ZM1.81819 10H25.4545V23.6364H1.81819V10ZM31.733 12.2727C31.2569 12.2949 30.844 12.7484 30.8663 13.2244C30.8886 13.7005 31.3421 14.1133 31.8182 14.0909H35.4545C35.9348 14.0977 36.3766 13.6621 36.3766 13.1818C36.3766 12.7015 35.9348 12.2659 35.4545 12.2727C34.2176 12.2727 32.9631 12.2727 31.733 12.2727ZM19.0057 20.4545C18.5296 20.4768 18.1167 20.9302 18.139 21.4063C18.1613 21.8823 18.6149 22.2951 19.0909 22.2727H22.7273C23.2076 22.2795 23.6493 21.844 23.6493 21.3636C23.6493 20.8833 23.2076 20.4478 22.7273 20.4545C21.4904 20.4545 20.2359 20.4545 19.0057 20.4545ZM6.73296 29.0909C6.2569 29.1131 5.84399 29.5666 5.8663 30.0426C5.88862 30.5187 6.34213 30.9315 6.81819 30.9091H20.4545C20.9348 30.9159 21.3766 30.4803 21.3766 30C21.3766 29.5197 20.9348 29.0841 20.4545 29.0909C15.8829 29.0909 11.2985 29.0909 6.73296 29.0909Z" fill="#00BE4C"/>
</svg>
