<svg xmlns="http://www.w3.org/2000/svg" xmlns:xlink="http://www.w3.org/1999/xlink" version="1.1" x="0px" y="0px" viewBox="0 0 100 125" style="enable-background:new 0 0 100 100;" xml:space="preserve"><style type="text/css">
	.st0{fill-rule:evenodd;clip-rule:evenodd;}
</style><path class="st0" d="M80.497,52.614H39.585v-5.229h40.912L67.475,34.364l3.697-3.697l19.334,19.333L71.172,69.333l-3.697-3.697  L80.497,52.614L80.497,52.614z M75.854,27.415l0.728,0.85l3.967-3.394c-4.218-4.924-8.43-8.441-14.396-11.188  C39.864,1.578,9.494,20.762,9.494,50c0,29.239,30.37,48.422,56.66,36.316c5.966-2.747,10.178-6.264,14.396-11.187l-3.967-3.394  l-0.728,0.85c-13.133,15.332-36.593,16.344-50.958,1.977c-13.565-13.565-13.565-35.559,0-49.124  C39.262,11.072,62.722,12.083,75.854,27.415z"/>
</svg>