<svg xmlns="http://www.w3.org/2000/svg" version="1.1" viewBox="-5.0 -10.0 110.0 135.0">
 <path d="m85.52 61.309h-4.2969c-1.0781 0-1.9531-0.875-1.9531-1.9531v-24.992c0-1.0781 0.875-1.9531 1.9531-1.9531h4.2969v-4.2969c0-1.0781 0.875-1.9531 1.9531-1.9531s1.9531 0.875 1.9531 1.9531v4.2969h4.2969c1.0781 0 1.9531 0.875 1.9531 1.9531v24.992c0 1.0781-0.875 1.9531-1.9531 1.9531h-4.2969v4.2969c0 1.0781-0.875 1.9531-1.9531 1.9531s-1.9531-0.875-1.9531-1.9531zm1.9531-24.992h-4.2969v21.086h8.5938v-21.086zm-26.945 37.488h-4.2969c-1.0781 0-1.9531-0.875-1.9531-1.9531v-24.992c0-1.0781 0.875-1.9531 1.9531-1.9531h4.2969v-4.2969c0-1.0781 0.875-1.9531 1.9531-1.9531s1.9531 0.875 1.9531 1.9531v4.2969h4.2969c1.0781 0 1.9531 0.875 1.9531 1.9531v24.992c0 1.0781-0.875 1.9531-1.9531 1.9531h-4.2969v4.2969c0 1.0781-0.875 1.9531-1.9531 1.9531s-1.9531-0.875-1.9531-1.9531zm1.9531-24.992h-4.2969v21.086h8.5938v-21.086zm-26.945 6.2461h-4.2969c-1.0781 0-1.9531-0.875-1.9531-1.9531v-24.992c0-1.0781 0.875-1.9531 1.9531-1.9531h4.2969v-4.2969c0-1.0781 0.875-1.9531 1.9531-1.9531s1.9531 0.875 1.9531 1.9531v4.2969h4.2969c1.0781 0 1.9531 0.875 1.9531 1.9531v24.992c0 1.0781-0.875 1.9531-1.9531 1.9531h-4.2969v4.2969c0 1.0781-0.875 1.9531-1.9531 1.9531s-1.9531-0.875-1.9531-1.9531zm1.9531-24.992h-4.2969v21.086h8.5938v-21.086zm-26.945 35.738h-4.2969c-1.0781 0-1.9531-0.875-1.9531-1.9531v-24.992c0-1.0781 0.875-1.9531 1.9531-1.9531h4.2969v-4.2969c0-1.0781 0.875-1.9531 1.9531-1.9531s1.9531 0.875 1.9531 1.9531v4.2969h4.2969c1.0781 0 1.9531 0.875 1.9531 1.9531v24.992c0 1.0781-0.875 1.9531-1.9531 1.9531h-4.2969v4.2969c0 1.0781-0.875 1.9531-1.9531 1.9531s-1.9531-0.875-1.9531-1.9531zm1.9531-24.992h-4.2969v21.086h8.5938v-21.086z" fill-rule="evenodd"/>
</svg>