<svg xmlns:dc="http://purl.org/dc/elements/1.1/" xmlns:cc="http://creativecommons.org/ns#" xmlns:rdf="http://www.w3.org/1999/02/22-rdf-syntax-ns#" xmlns:svg="http://www.w3.org/2000/svg" xmlns="http://www.w3.org/2000/svg" xmlns:sodipodi="http://sodipodi.sourceforge.net/DTD/sodipodi-0.dtd" xmlns:inkscape="http://www.inkscape.org/namespaces/inkscape" version="1.1" x="0px" y="0px" viewBox="0 0 100 125"><g transform="translate(0,-952.36218)"><path style="text-indent:0;text-transform:none;direction:ltr;block-progression:tb;baseline-shift:baseline;color:#000000;enable-background:accumulate;" d="m 55.9999,957.36219 c 3.8262,0 7,3.17388 7,7 l 0,3.5 c 0.7491,0.27865 1.4894,0.5793 2.2187,0.90625 l 2.4688,-2.46875 c 2.7052,-2.7052 7.201,-2.7052 9.9062,0 l 8.4688,8.46875 c 2.7052,2.7052 2.7052,7.1698 0,9.87503 l -2.4688,2.4687 c 0.3327,0.741 0.6236,1.4887 0.9063,2.25 l 3.5,0 c 3.8262,0 7,3.1739 7,7 l 0,12.00003 c 0,3.8261 -3.1738,7 -7,7 l -3.5,0 c -0.2786,0.749 -0.5794,1.4894 -0.9063,2.2187 l 2.4688,2.4688 c 2.7052,2.7052 2.7052,7.1698 0,9.875 l -8.4688,8.4687 c -2.7052,2.7052 -7.201,2.7052 -9.9062,0 l -2.4688,-2.4687 c -0.7292,0.3269 -1.4696,0.6276 -2.2187,0.9062 l 0,3.5313 c 0,3.8261 -3.1738,7 -7,7 l -12,0 c -3.8261,0 -7,-3.1739 -7,-7 l 0,-3.5313 c -0.7398,-0.2775 -1.4687,-0.5823 -2.1875,-0.9062 l -2.4688,2.4687 c -2.6989,2.6989 -7.1677,2.6862 -9.875,0 l -0.031,0 -8.5,-8.4375 c -10e-5,-0.01 -10e-5,-0.021 0,-0.031 -2.7052,-2.7052 -2.7052,-7.1698 0,-9.875 l 2.5,-2.5 c -0.3288,-0.7174 -0.6526,-1.442 -0.9375,-2.1875 l -3.5,0 c -3.8261,0 -7,-3.1739 -7,-7 l 0,-11.99993 c 0,-3.8261 3.1739,-7 7,-7 l 3.5,0 c 0.2891,-0.7579 0.603,-1.4899 0.9375,-2.2188 l -2.5,-2.5 c -2.7052,-2.70518 -2.7052,-7.16978 0,-9.87498 l 8.5,-8.46875 c 2.7052,-2.7052 7.2011,-2.7052 9.9062,0 l 2.4688,2.46875 c 0.7187,-0.32388 1.4477,-0.62875 2.1875,-0.90625 l 0,-3.5 c 0,-3.82612 3.1739,-7 7,-7 l 12,0 z m 0,6 -12,0 c -0.6058,0 -1,0.39414 -1,1 l 0,5.5 c -0.011,1.26618 -0.9138,2.47439 -2.125,2.84375 -1.8888,0.5814 -3.6787,1.31795 -5.375,2.21875 -1.126,0.59784 -2.631,0.37144 -3.5313,-0.53125 l -3.875,-3.875 c -0.4286,-0.42868 -0.9775,-0.42868 -1.4062,0 10e-5,0.0104 10e-5,0.0209 0,0.0312 l -8.5,8.4375 c -0.4286,0.42868 -0.4286,1.00882 0,1.4375 l 3.9062,3.90623 c 0.9028,0.9003 1.1292,2.4052 0.5313,3.5313 -0.914,1.7247 -1.6796,3.5165 -2.25,5.375 -0.3724,1.2211 -1.5983,2.1272 -2.875,2.125 l -5.5,0 c -0.6058,0 -1,0.3941 -1,1 l 0,11.99993 c 0,0.6059 0.3942,1 1,1 l 5.5,0 c 1.269,-0.01 2.4916,0.8841 2.875,2.0938 0.5704,1.8585 1.336,3.6816 2.25,5.4062 0.5833,1.1193 0.3578,2.6042 -0.5313,3.5 l -3.9062,3.9063 c -0.4286,0.4287 -0.4286,1.0088 0,1.4375 l 8.5,8.4687 c 0.4287,0.4287 0.9775,0.4287 1.4062,0 l 3.875,-3.875 c 0.9004,-0.9027 2.4053,-1.1291 3.5313,-0.5312 1.6963,0.9008 3.4862,1.6374 5.375,2.2187 1.2211,0.3725 2.1273,1.5984 2.125,2.875 l 0,5.5 c 0,0.6059 0.3942,1 1,1 l 12,0 c 0.6059,0 1,-0.3941 1,-1 l 0,-5.5 c 0,-1.2766 0.904,-2.5025 2.125,-2.875 1.9057,-0.5848 3.7103,-1.3181 5.4063,-2.2187 1.126,-0.5979 2.6309,-0.3715 3.5312,0.5312 l 3.875,3.875 c 0.4287,0.4287 0.9775,0.4287 1.4062,0 l 8.4688,-8.4687 c 0.4287,-0.4287 0.4287,-1.0088 0,-1.4375 l -3.875,-3.875 c -0.8891,-0.8958 -1.1145,-2.3807 -0.5312,-3.5 0.9005,-1.6959 1.6339,-3.5319 2.2187,-5.4375 0.3834,-1.2097 1.6061,-2.1001 2.875,-2.0938 l 5.5,0 c 0.6059,0 1,-0.3941 1,-1 l 0,-11.99993 c 0,-0.6059 -0.3941,-1 -1,-1 l -5.5,0 c -1.2766,0 -2.5025,-0.9039 -2.875,-2.125 -0.5848,-1.9057 -1.3182,-3.7103 -2.2187,-5.4063 -0.5979,-1.126 -0.3714,-2.6309 0.5312,-3.5312 l 3.875,-3.87503 c 0.4287,-0.42868 0.4287,-1.00882 0,-1.4375 l -8.4688,-8.46875 c -0.4286,-0.42868 -0.9775,-0.42868 -1.4062,0 l -3.875,3.875 c -0.9003,0.90269 -2.4052,1.12909 -3.5312,0.53125 -1.6959,-0.90061 -3.5006,-1.63391 -5.4063,-2.21875 -1.2111,-0.36936 -2.114,-1.57757 -2.125,-2.84375 l 0,-5.5 c 0,-0.60586 -0.3941,-1 -1,-1 z m -6,18 c 11.5624,0 21,9.43748 21,21.00001 0,11.5624 -9.4376,21 -21,21 -11.5625,0 -21,-9.4376 -21,-21 0,-11.56253 9.4375,-21.00001 21,-21.00001 z m 0,5.99998 c -8.3198,0 -15,6.6801 -15,15.00003 0,8.3197 6.6802,15 15,15 8.3198,0 15,-6.6803 15,-15 0,-8.31993 -6.6802,-15.00003 -15,-15.00003 z" fill="#000000" fill-opacity="1" stroke="none" marker="none" visibility="visible" display="inline" overflow="visible"/></g>
</svg>